<?xml version="1.0" standalone="no"?>
<!DOCTYPE svg PUBLIC "-//W3C//DTD SVG 20010904//EN"
 "http://www.w3.org/TR/2001/REC-SVG-20010904/DTD/svg10.dtd">
<svg version="1.0" xmlns="http://www.w3.org/2000/svg"
 width="1500.000000pt" height="1500.000000pt" viewBox="0 0 1500.000000 1500.000000"
 preserveAspectRatio="xMidYMid meet">
<metadata>
Created by potrace 1.10, written by Peter Selinger 2001-2011
</metadata>
<g transform="translate(0.000000,1500.000000) scale(0.100000,-0.100000)"
fill="#000000" stroke="none">
<path d="M6220 14089 c-25 -5 -92 -13 -150 -18 -58 -5 -119 -13 -135 -19 -17
-5 -45 -7 -62 -5 -18 3 -53 -2 -79 -11 -26 -9 -67 -16 -91 -16 -25 0 -53 -5
-63 -10 -18 -10 -78 -21 -198 -39 -28 -4 -57 -12 -64 -19 -7 -7 -30 -12 -53
-12 -22 0 -49 -7 -59 -15 -11 -8 -34 -15 -51 -15 -17 0 -40 -7 -51 -15 -10 -8
-32 -15 -49 -15 -16 0 -39 -7 -49 -15 -11 -8 -34 -15 -52 -15 -18 0 -36 -4
-39 -10 -3 -5 -15 -10 -25 -10 -11 0 -34 -6 -52 -14 -18 -8 -62 -23 -98 -34
-98 -31 -184 -63 -194 -73 -6 -5 -16 -9 -24 -9 -14 0 -67 -21 -114 -46 -14 -8
-33 -14 -41 -14 -8 0 -20 -7 -27 -15 -7 -8 -23 -15 -36 -15 -13 0 -24 -4 -24
-10 0 -5 -12 -13 -27 -16 -15 -4 -34 -13 -41 -21 -7 -7 -19 -13 -26 -13 -31 0
-477 -237 -492 -261 -3 -5 -11 -9 -19 -9 -13 0 -52 -23 -153 -91 -23 -16 -48
-29 -55 -29 -7 0 -25 -14 -41 -30 -16 -17 -34 -30 -41 -30 -6 0 -24 -11 -40
-25 -54 -45 -139 -105 -149 -105 -5 0 -31 -19 -57 -42 -83 -73 -133 -113 -169
-138 -19 -13 -67 -53 -105 -89 -39 -36 -87 -77 -107 -91 -51 -34 -415 -402
-470 -475 -25 -33 -63 -76 -83 -95 -20 -19 -51 -55 -68 -80 -31 -45 -67 -90
-144 -179 -24 -26 -43 -52 -43 -57 0 -10 -60 -95 -105 -149 -14 -16 -25 -34
-25 -40 0 -7 -13 -25 -30 -41 -16 -16 -30 -34 -30 -41 0 -7 -13 -32 -29 -55
-68 -101 -91 -140 -91 -153 0 -8 -4 -16 -9 -19 -24 -15 -250 -439 -264 -498
-4 -16 -12 -28 -17 -28 -6 0 -10 -9 -10 -19 0 -11 -7 -26 -15 -35 -8 -8 -15
-23 -15 -34 0 -11 -7 -25 -15 -32 -8 -7 -15 -19 -15 -27 0 -8 -6 -27 -14 -41
-25 -47 -46 -100 -46 -114 0 -8 -4 -18 -9 -23 -10 -11 -39 -90 -72 -195 -12
-36 -27 -80 -35 -98 -8 -18 -14 -41 -14 -52 0 -10 -5 -22 -10 -25 -5 -3 -10
-21 -10 -39 0 -18 -7 -41 -15 -52 -8 -10 -15 -32 -15 -49 0 -16 -7 -39 -15
-49 -8 -11 -15 -34 -15 -51 0 -17 -7 -40 -15 -51 -8 -10 -15 -37 -15 -59 0
-23 -5 -46 -12 -53 -7 -7 -15 -36 -19 -64 -18 -120 -29 -180 -39 -198 -5 -10
-10 -38 -10 -63 0 -24 -7 -65 -16 -91 -9 -26 -14 -61 -11 -79 2 -17 0 -45 -5
-62 -6 -16 -14 -77 -19 -135 -5 -58 -13 -127 -18 -155 -13 -65 -13 -965 0
-1030 5 -27 13 -97 18 -155 5 -58 13 -119 19 -135 5 -17 7 -45 5 -62 -3 -18 2
-53 11 -79 9 -26 16 -67 16 -91 0 -25 5 -53 10 -63 10 -18 21 -78 39 -198 4
-28 12 -57 19 -64 7 -7 12 -30 12 -52 0 -23 7 -50 15 -60 8 -11 15 -34 15 -51
0 -17 7 -40 15 -51 8 -10 15 -33 15 -50 0 -16 7 -39 15 -50 8 -10 15 -33 15
-51 0 -17 5 -35 10 -38 6 -3 10 -15 10 -25 0 -11 6 -34 14 -52 8 -18 23 -62
34 -98 31 -98 63 -184 73 -194 5 -6 9 -16 9 -24 0 -14 21 -67 46 -114 8 -14
14 -33 14 -41 0 -8 7 -20 15 -27 8 -7 15 -23 15 -36 0 -13 4 -24 10 -24 5 0
13 -12 16 -27 4 -15 13 -34 21 -41 7 -7 13 -19 13 -26 0 -31 237 -477 261
-492 5 -3 9 -11 9 -19 0 -13 23 -52 91 -153 16 -23 29 -48 29 -55 0 -7 14 -25
30 -41 17 -16 30 -34 30 -41 0 -6 11 -24 25 -40 45 -54 105 -139 105 -149 0
-5 19 -31 42 -57 78 -89 114 -134 145 -179 17 -25 50 -63 73 -85 23 -22 60
-65 83 -95 49 -67 414 -436 465 -470 20 -14 69 -54 107 -91 39 -36 86 -76 105
-89 36 -24 85 -64 169 -137 26 -24 52 -43 57 -43 10 0 95 -60 149 -105 16 -14
34 -25 40 -25 7 0 25 -13 41 -30 16 -16 34 -30 41 -30 7 0 32 -13 55 -29 101
-68 140 -91 153 -91 8 0 16 -4 19 -9 15 -24 441 -250 500 -265 14 -3 26 -11
26 -16 0 -6 9 -10 19 -10 11 0 26 -7 35 -15 8 -8 23 -15 34 -15 11 0 25 -7 32
-15 7 -8 19 -15 27 -15 8 0 27 -6 41 -14 47 -25 100 -46 114 -46 8 0 18 -4 23
-9 11 -10 97 -42 195 -73 36 -11 80 -26 98 -34 18 -8 41 -14 52 -14 10 0 22
-4 25 -10 3 -5 21 -10 38 -10 18 0 41 -7 51 -15 11 -8 34 -15 50 -15 17 0 40
-7 50 -15 11 -8 34 -15 51 -15 17 0 40 -7 51 -15 10 -8 37 -15 59 -15 23 0 46
-5 53 -12 7 -7 36 -15 64 -19 120 -18 180 -29 198 -39 10 -5 38 -10 63 -10 24
0 65 -7 91 -16 28 -10 62 -14 82 -11 20 3 47 1 62 -5 15 -6 74 -15 132 -19 58
-5 128 -13 155 -18 65 -13 965 -13 1030 0 28 5 97 13 155 17 58 4 111 12 119
16 7 5 38 8 67 7 30 0 73 6 96 14 24 8 61 15 83 15 22 0 58 7 80 15 22 8 59
14 82 15 23 0 45 5 48 10 3 6 25 10 49 10 23 0 51 7 62 15 10 8 37 15 59 15
22 0 49 7 59 15 11 8 34 15 51 15 17 0 40 7 51 15 10 8 33 15 50 15 16 0 39 7
50 15 10 8 33 15 51 15 17 0 35 5 38 10 3 6 15 10 25 10 11 0 34 6 52 14 18 8
74 26 123 42 98 30 104 33 153 57 19 9 38 17 44 17 11 0 68 24 110 46 14 8 33
14 41 14 8 0 20 7 27 15 7 8 23 15 36 15 13 0 24 4 24 10 0 5 12 13 27 16 15
4 34 13 41 21 7 7 19 13 27 13 30 0 476 237 491 261 3 5 11 9 19 9 13 0 52 23
153 91 23 16 48 29 55 29 7 0 25 14 41 30 16 17 34 30 41 30 6 0 24 11 40 25
54 45 139 105 149 105 5 0 31 19 57 43 83 72 133 112 169 137 19 13 67 53 105
89 39 36 87 77 107 91 51 34 415 402 470 475 25 33 63 76 83 95 20 19 51 55
68 80 31 45 67 90 145 179 23 26 42 52 42 57 0 10 60 95 105 149 14 16 25 34
25 40 0 7 13 25 30 41 16 16 30 34 30 41 0 7 13 32 29 55 68 101 91 140 91
153 0 8 4 16 9 19 24 15 250 441 265 500 3 14 11 26 16 26 6 0 10 9 10 19 0
11 7 26 15 35 8 8 15 23 15 34 0 11 7 25 15 32 8 7 15 19 15 27 0 8 6 27 14
41 25 47 46 100 46 114 0 8 4 18 9 24 10 10 42 96 73 194 11 36 26 80 34 98 8
18 14 41 14 52 0 10 5 22 10 25 6 3 10 21 10 38 0 18 7 41 15 51 8 11 15 34
15 50 0 17 7 40 15 50 8 11 15 34 15 51 0 17 7 40 15 51 8 10 15 37 15 59 0
22 7 49 15 59 8 11 15 39 15 62 0 24 5 46 10 49 6 3 10 25 10 48 1 23 7 60 15
82 8 22 15 58 15 81 0 22 7 62 16 88 9 26 14 61 11 79 -2 18 2 52 9 77 8 25
14 74 14 110 0 36 7 97 15 135 12 56 15 162 14 540 0 259 -5 492 -10 520 -5
28 -13 97 -17 155 -4 58 -12 111 -16 119 -5 7 -8 37 -7 66 0 29 -6 72 -14 95
-8 23 -15 62 -15 87 0 24 -5 53 -10 63 -10 18 -21 78 -39 198 -4 28 -12 57
-19 64 -7 7 -12 30 -12 53 0 22 -7 49 -15 59 -8 11 -15 34 -15 51 0 17 -7 40
-15 51 -8 10 -15 33 -15 50 0 16 -7 39 -15 50 -8 10 -15 33 -15 51 0 17 -4 35
-10 38 -5 3 -10 15 -10 25 0 11 -6 34 -14 52 -8 18 -23 62 -34 98 -31 98 -63
184 -73 195 -5 5 -9 15 -9 23 0 14 -21 67 -46 114 -8 14 -14 33 -14 41 0 8 -7
20 -15 27 -8 7 -15 23 -15 36 0 13 -4 24 -10 24 -5 0 -13 12 -16 27 -4 15 -13
34 -21 41 -7 7 -13 19 -13 26 0 31 -237 477 -261 492 -5 3 -9 11 -9 19 0 13
-23 52 -91 153 -16 23 -29 48 -29 55 0 7 -14 25 -30 41 -17 16 -30 34 -30 41
0 6 -11 24 -25 40 -45 54 -105 139 -105 149 0 5 -19 31 -42 57 -78 89 -114
134 -145 179 -17 25 -50 63 -73 85 -23 22 -60 65 -83 95 -49 67 -414 436 -465
470 -20 14 -68 54 -107 91 -38 36 -86 76 -105 89 -36 24 -85 64 -169 138 -26
23 -52 42 -57 42 -10 0 -95 60 -149 105 -16 14 -34 25 -40 25 -7 0 -25 13 -41
30 -16 16 -34 30 -41 30 -7 0 -32 13 -55 29 -101 68 -140 91 -153 91 -8 0 -16
4 -19 9 -15 24 -439 250 -498 264 -16 4 -28 12 -28 17 0 6 -9 10 -19 10 -11 0
-26 7 -35 15 -8 8 -23 15 -34 15 -11 0 -25 7 -32 15 -7 8 -19 15 -27 15 -8 0
-27 6 -41 14 -47 25 -100 46 -114 46 -8 0 -18 4 -24 9 -10 10 -96 42 -194 73
-36 11 -80 26 -98 34 -18 8 -41 14 -52 14 -10 0 -22 5 -25 10 -3 6 -21 10 -38
10 -18 0 -41 7 -51 15 -11 8 -34 15 -50 15 -17 0 -40 7 -50 15 -11 8 -34 15
-51 15 -17 0 -40 7 -51 15 -10 8 -37 15 -60 15 -22 0 -45 5 -52 12 -7 7 -36
15 -64 19 -120 18 -180 29 -198 39 -10 5 -38 10 -63 10 -24 0 -65 7 -91 16
-26 9 -61 14 -79 11 -17 -2 -45 0 -62 5 -16 6 -77 14 -135 19 -58 5 -127 13
-155 18 -63 12 -973 12 -1035 0z m-2218 -2444 c35 -24 66 -77 113 -195 10 -25
23 -58 30 -75 7 -16 23 -55 35 -85 12 -30 28 -68 35 -85 7 -16 18 -43 25 -60
21 -53 42 -99 56 -127 8 -14 14 -35 14 -46 0 -11 7 -25 15 -32 8 -7 15 -20 15
-30 0 -10 7 -23 15 -30 8 -7 15 -21 15 -31 0 -11 4 -27 9 -37 4 -9 15 -33 23
-52 9 -19 26 -57 39 -85 13 -27 23 -69 23 -93 1 -34 -4 -47 -28 -67 -61 -52
-124 -19 -176 93 -17 37 -39 83 -48 102 l-17 35 -247 3 -246 2 -20 -42 c-11
-24 -30 -69 -43 -101 -23 -58 -84 -127 -113 -127 -7 0 -28 10 -47 23 -30 20
-34 28 -37 75 -2 40 1 54 12 58 9 3 16 16 16 29 0 12 7 28 15 35 8 7 15 22 15
34 0 12 4 26 9 31 8 9 32 65 61 140 4 11 17 41 28 66 12 25 28 64 36 87 18 50
41 106 62 145 8 16 14 34 14 40 0 7 14 39 30 72 16 33 30 67 30 76 0 9 7 22
15 29 8 7 15 23 15 35 0 13 7 25 15 29 8 3 15 14 15 24 0 27 36 105 57 125 16
14 57 34 73 36 3 1 22 -10 42 -24z m4511 10 c32 -8 68 -15 81 -15 13 0 29 -7
36 -15 7 -8 25 -15 39 -15 54 0 105 -80 81 -125 -28 -52 -48 -65 -103 -65 -32
0 -62 6 -75 16 -35 24 -242 22 -297 -3 -46 -21 -125 -73 -125 -82 0 -3 -14
-21 -30 -40 -17 -18 -30 -41 -30 -50 0 -9 -7 -27 -16 -39 -22 -31 -22 -286 -1
-311 8 -9 17 -28 20 -42 16 -64 127 -153 212 -170 22 -4 59 -13 83 -21 37 -11
49 -10 91 5 27 9 60 17 73 17 13 0 33 7 44 15 10 8 36 15 58 15 32 0 45 -6 72
-36 40 -42 42 -67 11 -113 -21 -31 -65 -54 -127 -68 -14 -3 -31 -10 -38 -16
-7 -6 -60 -12 -116 -15 -80 -3 -117 -1 -162 13 -129 39 -180 59 -209 85 -16
14 -43 32 -58 38 -15 7 -36 26 -45 43 -9 17 -32 49 -49 71 -18 22 -33 48 -33
58 0 11 -4 22 -10 25 -5 3 -10 16 -10 27 0 12 -7 29 -16 39 -23 26 -24 343 -1
385 8 16 23 47 32 69 9 22 22 51 29 64 21 38 148 161 187 181 59 30 142 60
169 60 14 0 45 7 70 14 59 19 94 19 163 1z m-5441 -12 c36 -4 75 -15 85 -24
10 -8 30 -20 46 -27 15 -6 27 -17 27 -23 0 -6 14 -28 30 -49 29 -36 30 -42 30
-133 0 -100 -8 -134 -37 -165 -81 -85 -78 -80 -58 -102 10 -11 24 -20 31 -20
20 0 76 -59 96 -100 25 -54 42 -144 34 -192 -3 -23 -9 -61 -12 -83 -4 -22 -12
-47 -18 -55 -7 -8 -18 -28 -26 -43 -17 -35 -45 -55 -128 -91 -63 -28 -68 -28
-325 -35 -333 -9 -354 -4 -376 86 -16 61 -13 918 3 983 8 33 20 50 46 68 34
23 37 23 260 18 124 -2 255 -8 292 -13z m2178 2 c61 -12 114 -42 162 -92 50
-51 88 -114 88 -146 0 -11 5 -37 12 -58 22 -74 -37 -236 -108 -298 -19 -17
-34 -34 -34 -40 0 -5 18 -27 40 -49 22 -22 40 -49 40 -60 0 -12 4 -23 9 -26 4
-3 11 -42 13 -86 4 -74 7 -83 37 -114 58 -60 60 -145 4 -167 -108 -41 -233 83
-233 231 0 71 -19 118 -59 148 -29 21 -39 22 -216 22 l-185 0 0 -166 c0 -150
-2 -170 -20 -199 -34 -54 -109 -57 -162 -7 l-28 26 0 512 c0 282 3 520 7 529
3 10 24 26 47 36 38 17 63 19 296 15 140 -2 271 -7 290 -11z m1095 -2 c79 -12
122 -33 164 -77 45 -47 63 -95 68 -185 4 -56 0 -84 -13 -115 -20 -46 -81 -116
-101 -116 -25 0 -13 -20 25 -39 46 -24 96 -75 122 -126 16 -32 20 -59 20 -151
0 -75 -5 -123 -15 -147 -16 -38 -99 -127 -119 -127 -7 0 -17 -5 -24 -12 -33
-33 -87 -40 -367 -44 -311 -6 -317 -5 -348 56 -16 32 -17 73 -15 531 3 481 4
498 23 519 41 46 65 50 300 46 121 -2 247 -8 280 -13z m952 -7 c26 -22 46 -55
79 -131 24 -57 112 -280 119 -302 3 -13 11 -23 16 -23 5 0 9 -11 9 -24 0 -13
7 -29 15 -36 8 -7 15 -20 15 -30 0 -9 10 -37 23 -61 12 -24 33 -71 46 -104 12
-33 27 -69 32 -80 43 -98 59 -139 59 -150 0 -7 7 -18 15 -25 18 -15 21 -110 5
-141 -6 -10 -24 -26 -41 -34 -28 -15 -32 -15 -62 4 -32 20 -77 72 -77 90 0 5
-8 24 -17 43 -9 18 -22 45 -30 60 -7 14 -13 33 -13 41 0 9 -4 17 -10 19 -5 2
-118 1 -251 -2 l-241 -5 -21 -40 c-39 -76 -47 -93 -47 -104 0 -26 -51 -89 -85
-105 -33 -16 -38 -16 -60 -2 -38 25 -59 73 -46 103 6 13 11 32 11 42 0 10 7
24 15 31 8 7 15 20 15 30 0 10 7 23 15 30 8 7 15 21 15 31 0 11 4 27 9 37 13
27 37 83 56 132 10 25 28 69 41 98 13 29 24 59 24 67 0 7 5 17 10 20 6 3 10
17 10 29 0 13 7 29 15 36 8 7 15 18 15 25 0 8 6 26 14 42 17 35 62 139 86 198
7 17 18 44 25 60 7 17 18 45 25 63 17 44 74 92 110 92 16 0 41 -11 57 -24z
m1823 -27 c17 -24 20 -48 22 -225 l3 -199 259 0 259 0 -2 182 c-2 164 0 185
18 221 13 25 33 45 57 57 35 16 38 16 76 -1 21 -10 43 -25 49 -35 5 -10 9
-233 9 -538 0 -503 -1 -522 -19 -540 -27 -27 -84 -36 -122 -21 -18 8 -38 28
-50 52 -18 35 -20 57 -19 224 1 103 -2 190 -7 195 -6 6 -366 13 -500 9 -10 0
-13 -49 -13 -210 l0 -210 -29 -32 c-26 -30 -35 -33 -82 -32 -45 0 -55 4 -76
30 l-23 29 0 510 c0 485 1 511 19 535 42 54 132 54 171 -1z m1151 34 c20 -9
42 -27 48 -40 7 -16 11 -140 11 -366 0 -339 0 -342 24 -392 23 -48 64 -94 116
-128 18 -13 48 -17 117 -17 89 0 96 2 141 33 26 17 64 57 85 88 l37 55 0 351
c0 348 0 350 23 384 33 49 69 59 115 32 30 -17 38 -29 45 -64 5 -24 7 -204 4
-400 -3 -314 -5 -360 -20 -383 -9 -14 -17 -32 -17 -40 0 -42 -117 -178 -175
-204 -17 -8 -43 -20 -58 -28 -16 -8 -37 -14 -47 -14 -10 0 -45 -7 -78 -15 -47
-12 -69 -13 -103 -5 -24 7 -62 15 -84 19 -72 15 -130 48 -196 112 -81 79 -102
123 -130 269 -16 86 -13 670 3 706 11 23 68 62 92 64 5 0 26 -7 47 -17z
m-5385 -1768 c10 -8 33 -15 50 -15 35 0 50 -14 52 -47 1 -34 -15 -37 -42 -9
-13 14 -32 26 -43 26 -10 0 -23 4 -29 10 -9 9 -62 -4 -91 -23 -21 -13 -15 -62
10 -85 12 -11 48 -33 79 -47 57 -26 120 -85 133 -125 8 -24 -22 -73 -63 -104
-21 -16 -40 -19 -101 -17 -41 1 -79 5 -85 9 -6 3 -21 5 -32 4 -15 -2 -23 4
-28 20 -9 37 -7 106 4 113 17 11 40 -15 40 -46 0 -20 9 -35 33 -53 45 -35 76
-40 117 -19 30 15 36 24 41 60 4 35 2 46 -15 61 -24 22 -101 62 -119 62 -17 1
-62 41 -76 67 -20 40 -14 90 16 118 15 14 37 25 48 25 12 0 30 7 41 15 24 18
36 19 60 0z m1434 -22 c3 -3 -4 -11 -14 -19 -17 -12 -19 -25 -17 -122 3 -125
-14 -189 -61 -238 -26 -27 -38 -32 -96 -37 -78 -6 -117 8 -152 55 -20 28 -23
44 -28 184 l-5 153 -26 3 c-14 2 -26 8 -26 13 0 6 36 11 83 13 84 3 108 -9 56
-28 l-25 -10 3 -151 c3 -151 3 -151 31 -175 15 -13 45 -29 66 -35 38 -11 42
-10 79 20 45 35 49 48 60 224 7 111 3 127 -30 127 -17 0 -25 20 -13 32 6 6
107 -2 115 -9z m1291 7 c53 0 64 -15 24 -30 l-25 -10 0 -190 c0 -177 -1 -190
-18 -190 -21 0 -49 28 -80 80 -11 19 -37 51 -57 70 -20 19 -45 51 -56 70 -10
19 -32 50 -49 69 -23 27 -31 31 -35 19 -7 -18 -2 -276 5 -297 6 -18 -21 -25
-57 -16 l-26 6 22 23 c20 22 21 31 19 191 l-3 169 -24 6 c-48 11 -36 30 19 30
40 0 58 -5 76 -22 13 -13 24 -28 24 -35 0 -7 25 -40 55 -74 30 -34 55 -66 55
-70 0 -13 80 -99 92 -99 5 0 7 58 6 132 -3 124 -4 133 -23 136 -11 2 -24 8
-29 12 -12 12 4 32 21 26 8 -3 37 -6 64 -6z m-3444 -32 c27 -26 33 -39 33 -75
0 -37 -6 -49 -40 -84 -22 -23 -40 -46 -40 -53 1 -6 14 -27 30 -46 17 -19 30
-39 30 -45 0 -6 14 -24 30 -40 40 -38 39 -55 -5 -55 -32 0 -38 6 -85 76 -27
41 -50 81 -50 89 0 7 -10 19 -22 27 -31 21 -17 44 30 51 34 6 41 12 54 45 14
35 13 42 -1 73 -16 34 -17 34 -81 34 l-65 0 -2 -160 c-3 -185 -1 -201 28 -208
40 -11 9 -24 -60 -26 -76 -2 -91 7 -61 34 18 17 20 31 20 187 l0 168 -25 10
c-56 21 -23 30 112 30 l137 0 33 -32z m471 -18 c3 -67 -4 -78 -33 -50 -13 12
-25 32 -27 44 -3 19 -9 21 -78 21 l-75 0 0 -70 0 -70 58 -5 c72 -6 75 -24 5
-28 -29 -2 -56 -9 -60 -15 -13 -20 -9 -162 4 -175 20 -20 92 -15 122 9 14 11
26 26 26 32 1 19 39 59 50 52 5 -3 10 -16 10 -29 0 -27 -19 -86 -28 -87 -4 0
-69 -2 -145 -4 -134 -3 -160 2 -139 28 6 7 12 88 13 186 2 144 0 176 -12 179
-35 9 -40 12 -34 22 4 7 67 9 173 8 l167 -3 3 -45z m780 -19 c2 -48 0 -62 -10
-59 -7 3 -14 18 -16 35 -4 42 -32 65 -74 61 l-33 -3 -3 -173 c-2 -170 -2 -174
20 -192 20 -16 21 -19 7 -25 -25 -9 -142 -1 -146 10 -2 6 7 15 19 20 23 10 23
13 23 185 l0 175 -39 0 c-36 0 -40 -3 -63 -47 -14 -27 -29 -45 -34 -42 -10 6
-12 107 -2 118 4 3 84 5 177 4 l171 -3 3 -64z m270 44 c2 -11 9 -27 16 -35 7
-8 18 -33 25 -55 7 -22 19 -53 26 -70 7 -16 20 -50 30 -75 33 -85 54 -128 65
-135 5 -3 10 -13 10 -21 0 -10 -13 -14 -49 -14 -53 0 -70 12 -51 35 10 12 9
22 -4 49 -9 19 -16 41 -16 49 0 21 -22 27 -92 27 -53 0 -64 -3 -85 -26 -21
-23 -24 -35 -21 -78 3 -50 2 -51 -25 -54 -16 -2 -36 -1 -44 3 -14 5 -12 10 9
33 14 15 29 43 33 62 4 19 13 45 21 57 8 12 14 30 14 39 0 12 5 14 18 8 9 -4
45 -10 80 -12 64 -4 71 1 53 36 -15 32 -39 87 -45 105 -8 23 -26 12 -26 -15 0
-28 -32 -96 -47 -102 -18 -7 -16 44 2 68 8 11 15 27 15 37 0 9 7 22 15 29 8 7
15 25 15 40 0 14 3 30 7 34 14 13 48 1 51 -19z m989 -7 c46 -45 46 -97 0 -141
-18 -18 -41 -37 -52 -43 -19 -10 -19 -12 8 -43 15 -18 27 -37 27 -42 0 -22 73
-109 91 -109 34 0 79 29 79 50 0 19 3 28 27 75 6 12 14 36 18 55 4 19 16 52
26 72 11 21 19 46 19 56 0 11 6 25 14 32 8 6 16 24 18 38 2 21 8 27 28 27 18
0 26 -6 28 -22 2 -12 10 -27 18 -33 8 -7 14 -22 14 -34 0 -12 4 -26 8 -31 5
-6 17 -32 27 -60 39 -110 76 -194 92 -206 26 -22 15 -39 -24 -39 -21 0 -48 3
-61 6 -22 6 -22 7 -6 26 14 14 15 21 6 30 -7 7 -12 21 -12 33 0 11 -7 31 -16
43 -13 19 -24 22 -88 22 l-73 0 -20 -54 c-13 -36 -17 -59 -11 -70 5 -9 7 -20
4 -25 -5 -8 -202 -9 -209 0 -2 2 -16 27 -32 54 -15 28 -43 74 -62 103 -19 28
-32 56 -29 61 3 5 22 12 41 15 41 8 55 30 55 84 0 57 -23 74 -96 70 l-59 -3
-3 -69 c-2 -53 1 -72 14 -87 16 -18 16 -20 1 -37 -12 -13 -17 -37 -17 -79 0
-70 6 -93 26 -93 23 0 16 -19 -10 -26 -41 -10 -92 -1 -86 16 3 8 6 97 8 197
l3 182 -26 7 c-56 14 -6 24 123 24 l136 0 33 -32z m1381 -30 c-2 -35 -7 -62
-12 -61 -6 1 -17 21 -27 45 -16 42 -17 43 -65 43 l-48 0 1 -172 c1 -95 5 -177
8 -183 3 -5 13 -10 21 -10 19 0 18 -16 -2 -24 -21 -8 -84 -6 -109 3 -19 8 -19
8 3 20 22 12 22 14 20 189 l-3 177 -34 3 c-37 4 -83 -29 -80 -58 3 -30 -1 -40
-15 -40 -8 0 -16 6 -19 13 -3 11 7 74 18 105 3 9 48 12 175 12 l171 0 -3 -62z
m490 43 c31 -26 32 -115 2 -131 -27 -15 -25 -24 15 -69 29 -32 35 -46 35 -83
0 -33 -6 -50 -22 -65 -45 -41 -81 -51 -189 -55 -89 -3 -103 -1 -99 12 3 8 6
97 8 196 l3 182 -26 6 c-59 15 -7 26 118 26 114 -1 135 -3 155 -19z m332 -1
c11 -11 20 -29 20 -39 0 -11 6 -32 14 -48 14 -28 33 -71 56 -128 7 -16 18 -43
25 -60 8 -16 17 -41 20 -55 4 -14 14 -33 22 -42 23 -26 7 -38 -48 -38 -51 0
-57 6 -38 42 9 17 8 28 -4 52 -8 17 -18 39 -21 49 -4 14 -17 17 -73 17 -37 0
-73 -4 -79 -8 -17 -12 -44 -95 -38 -118 8 -29 -9 -38 -54 -29 -36 7 -36 7 -15
23 21 17 73 118 73 143 0 8 7 27 15 42 8 16 20 47 26 70 6 23 15 45 20 48 5 3
12 16 14 30 6 31 26 69 37 69 4 0 17 -9 28 -20z m533 -4 c25 -20 29 -31 30
-75 2 -50 0 -54 -42 -90 -29 -25 -40 -40 -33 -45 7 -4 12 -15 12 -25 0 -10 13
-34 30 -52 16 -19 30 -39 30 -45 0 -6 9 -19 20 -29 29 -27 25 -45 -10 -45 -37
0 -64 27 -99 97 -14 26 -38 62 -54 80 -35 37 -31 63 10 63 50 0 73 25 73 77 0
66 -19 83 -92 83 l-59 0 3 -182 c2 -101 5 -190 8 -198 4 -12 -5 -16 -40 -18
-25 -1 -52 2 -59 7 -13 8 -11 13 7 28 22 18 23 23 20 188 l-3 169 -24 6 c-14
3 -26 11 -29 18 -3 9 30 12 135 12 129 -1 140 -2 166 -24z m-4923 -895 c0 -16
-24 -28 -80 -41 -30 -7 -69 -19 -85 -27 -34 -17 -66 -15 -72 4 -6 17 72 54
132 63 73 11 105 11 105 1z m125 -51 c19 -30 -44 -80 -100 -80 -13 0 -27 -5
-30 -11 -4 -5 -18 -14 -31 -19 -31 -12 -32 -34 -1 -24 42 14 62 10 60 -11 -5
-46 -32 -144 -52 -190 -26 -58 -23 -91 17 -175 50 -106 259 -290 330 -290 11
0 25 -7 32 -15 7 -8 20 -15 29 -15 10 0 26 -7 37 -15 10 -8 31 -15 45 -15 15
0 32 -7 39 -15 7 -9 29 -15 52 -15 21 0 51 -6 66 -14 42 -21 300 -34 427 -22
17 2 59 7 95 12 l65 8 -40 7 c-22 4 -123 8 -225 9 -102 1 -207 5 -235 11 -27
5 -75 13 -105 18 -280 48 -565 254 -604 437 -5 21 -2 35 7 42 10 9 21 1 50
-38 40 -54 113 -113 192 -154 28 -15 57 -31 65 -36 37 -21 146 -70 157 -70 6
0 24 -6 40 -14 70 -35 127 -51 277 -77 99 -17 162 -19 604 -19 320 1 499 -3
511 -10 11 -5 31 -10 45 -10 14 0 27 -4 30 -9 3 -5 40 -26 82 -47 43 -21 112
-69 158 -109 112 -98 146 -152 89 -139 -37 8 -113 46 -113 55 0 9 -163 119
-200 135 -8 3 -28 12 -45 19 -103 44 -126 47 -395 46 -220 0 -266 -3 -295 -17
-53 -25 -43 -37 23 -30 31 3 143 9 249 12 162 5 200 4 239 -10 26 -9 64 -16
84 -16 20 0 45 -7 56 -15 10 -8 27 -15 36 -15 9 0 34 -12 55 -26 21 -14 47
-30 58 -35 11 -5 41 -24 67 -41 138 -96 238 -152 250 -140 5 5 4 30 -2 60 -19
87 17 117 107 89 101 -32 169 -39 314 -34 79 2 176 10 214 16 74 12 206 50
246 72 13 6 31 16 39 20 8 4 35 18 60 29 25 12 52 25 60 30 8 5 32 18 53 30
122 66 312 211 379 289 19 22 52 53 74 67 21 15 58 43 81 64 59 51 283 159
333 160 8 0 28 7 44 15 15 8 45 15 65 15 20 0 51 4 70 10 101 29 305 3 403
-50 10 -6 22 -10 27 -10 21 0 131 -82 170 -126 24 -28 47 -67 56 -97 17 -57
20 -128 6 -143 -5 -5 -11 -20 -13 -34 -2 -17 -9 -25 -23 -25 -16 0 -21 9 -26
50 -14 107 -84 201 -179 240 -25 10 -52 25 -61 32 -8 7 -38 13 -65 13 -29 0
-59 6 -70 15 -25 19 -59 18 -184 -4 -197 -36 -270 -73 -399 -201 -54 -53 -100
-102 -102 -108 -4 -11 -134 -157 -161 -181 -10 -9 -18 -19 -18 -24 0 -5 -38
-46 -84 -92 -65 -63 -102 -91 -162 -120 -44 -21 -92 -44 -107 -51 -16 -8 -39
-14 -52 -14 -12 0 -28 -7 -35 -15 -18 -22 -277 -22 -306 0 -10 8 -35 15 -55
15 -20 0 -53 7 -72 15 -20 8 -51 15 -69 15 -18 0 -65 7 -103 15 -84 18 -165
19 -237 4 -60 -13 -158 -56 -158 -70 0 -5 -15 -8 -32 -7 -30 3 -33 0 -38 -30
-3 -18 -8 -33 -12 -32 -5 0 -16 0 -25 0 -10 0 -38 18 -63 40 -25 22 -61 48
-80 58 -19 10 -71 37 -114 60 -44 23 -88 42 -98 42 -11 0 -31 6 -46 14 -44 23
-278 58 -387 59 -126 1 -257 -12 -249 -24 3 -5 17 -9 32 -9 197 1 470 -24 558
-51 17 -5 39 -9 50 -9 11 0 24 -4 30 -9 5 -6 58 -35 118 -66 60 -30 120 -65
135 -76 14 -11 56 -42 93 -69 80 -60 92 -84 54 -117 -15 -13 -35 -23 -45 -23
-10 0 -24 -7 -31 -15 -7 -8 -22 -15 -34 -15 -12 0 -27 -5 -33 -11 -27 -27
-207 -51 -398 -54 -212 -3 -652 31 -692 53 -12 6 -39 12 -60 12 -22 0 -48 7
-59 15 -10 8 -35 15 -54 15 -19 0 -46 7 -60 15 -14 8 -38 14 -53 15 -16 0 -37
5 -48 11 -11 6 -41 14 -67 19 -63 11 -106 24 -172 50 -30 12 -79 28 -107 35
-88 24 -175 55 -228 81 -53 26 -65 33 -132 77 -23 15 -44 27 -48 27 -3 0 -56
38 -118 84 -147 111 -245 220 -307 341 -5 11 -14 27 -19 35 -42 69 -57 204
-26 230 8 7 15 23 15 36 0 13 20 62 45 109 24 46 41 86 36 89 -14 9 -81 -85
-81 -113 0 -10 -7 -21 -15 -25 -8 -3 -15 -16 -15 -29 0 -14 -7 -30 -15 -37
-12 -10 -15 -36 -15 -116 0 -81 -3 -104 -14 -104 -34 0 -34 194 0 245 8 11 14
28 14 38 0 9 6 20 14 23 8 3 17 13 20 22 3 9 15 31 26 47 11 17 29 48 41 71
13 25 41 53 71 73 53 35 80 35 71 2 -7 -27 -1 -26 56 3 25 13 64 31 86 39 22
8 74 29 115 45 85 34 96 36 105 22z m4695 -157 c119 -40 180 -73 248 -132 42
-37 62 -62 62 -78 0 -13 -4 -23 -8 -23 -5 0 -33 19 -63 41 -100 77 -238 129
-382 146 -54 6 -251 -14 -280 -29 -10 -5 -40 -15 -65 -23 -26 -7 -72 -23 -102
-35 -30 -12 -66 -24 -80 -27 -14 -3 -32 -11 -40 -18 -8 -6 -22 -15 -30 -19
-41 -19 -205 -138 -212 -154 -4 -10 -104 -100 -200 -179 -95 -79 -163 -125
-258 -175 -41 -21 -79 -43 -85 -49 -5 -5 -17 -9 -26 -9 -9 0 -22 -7 -29 -15
-7 -8 -24 -15 -39 -15 -15 0 -32 -5 -38 -11 -6 -6 -28 -15 -49 -20 -22 -6 -66
-18 -99 -26 -44 -12 -118 -18 -276 -20 -190 -3 -219 -2 -233 12 -9 9 -14 21
-11 26 4 5 71 9 149 9 102 0 156 4 186 15 23 8 73 15 109 15 44 0 74 5 87 15
10 8 37 15 60 15 50 0 182 56 319 135 55 32 102 61 105 64 3 3 21 18 40 32 19
15 53 44 76 65 22 22 71 64 109 94 38 30 100 82 139 116 152 130 352 244 428
244 16 0 39 6 51 12 49 28 354 29 437 1z m-5300 -115 c0 -13 -7 -32 -15 -42
-8 -11 -15 -30 -15 -43 0 -13 -4 -23 -9 -23 -15 0 -41 -85 -41 -136 0 -34 8
-67 25 -100 14 -27 25 -57 25 -67 0 -17 38 -79 53 -85 4 -2 7 -8 7 -13 0 -5
25 -43 56 -84 63 -86 175 -201 249 -255 86 -63 247 -156 320 -184 39 -16 97
-39 130 -53 81 -34 91 -38 160 -57 33 -10 74 -24 90 -31 17 -8 44 -16 60 -18
35 -5 88 -24 127 -43 14 -8 38 -14 52 -14 15 0 34 -4 44 -10 28 -15 205 -50
407 -81 39 -5 90 -16 115 -24 53 -16 545 -16 570 0 8 5 42 13 75 16 92 11 220
37 265 55 22 9 47 14 55 10 19 -7 19 -52 0 -60 -8 -3 -15 -13 -15 -21 0 -19
-69 -112 -155 -208 -71 -80 -206 -196 -255 -221 -46 -23 -278 -96 -307 -96
-12 0 -50 -6 -85 -14 -73 -16 -293 -14 -348 3 -19 6 -51 11 -71 11 -45 0 -350
78 -365 93 -4 4 -16 7 -27 7 -10 0 -31 6 -45 13 -15 8 -42 21 -60 30 -19 9
-42 17 -52 17 -9 0 -23 7 -30 15 -7 8 -18 15 -24 15 -7 0 -38 15 -70 33 -32
17 -70 38 -84 46 -54 28 -193 122 -210 141 -9 11 -24 20 -33 20 -9 0 -24 10
-35 21 -10 12 -35 32 -54 44 -98 62 -377 344 -454 458 -14 21 -43 61 -65 90
-47 63 -108 178 -123 232 -16 55 -15 256 1 335 16 75 65 189 111 255 34 50 50
57 50 23z m5303 -184 c106 -32 164 -73 218 -152 32 -48 37 -87 13 -96 -29 -11
-91 -6 -103 8 -7 8 -23 17 -36 20 -14 4 -25 11 -25 16 0 6 -7 10 -15 10 -13 0
-26 5 -122 46 -28 12 -68 16 -150 15 -103 0 -117 -3 -171 -29 -73 -37 -203
-146 -302 -254 -87 -96 -171 -183 -365 -381 -173 -177 -296 -271 -496 -381
l-67 -36 -151 -1 c-83 0 -165 4 -183 9 -18 6 -60 18 -93 27 -55 16 -173 56
-220 75 -11 4 -33 13 -50 20 -16 6 -45 24 -63 40 -33 28 -34 29 -37 124 l-4
97 41 29 c23 17 46 30 51 30 6 0 19 7 28 16 27 24 342 24 387 0 17 -9 53 -16
80 -16 26 0 54 -6 60 -12 7 -7 45 -16 85 -20 40 -4 90 -10 111 -14 40 -7 157
8 211 28 17 5 44 13 60 16 17 2 39 11 50 18 11 8 27 14 36 14 9 0 22 7 29 15
7 8 18 15 26 15 32 0 188 130 232 194 14 21 40 52 57 70 28 28 53 58 162 186
44 53 143 144 192 180 19 13 76 38 125 56 83 29 102 32 219 33 91 1 143 -4
180 -15z m-5283 -205 c0 -11 -4 -17 -10 -14 -5 3 -10 13 -10 21 0 8 5 14 10
14 6 0 10 -9 10 -21z m5243 -37 c28 -24 20 -37 -35 -57 -41 -15 -75 -41 -161
-124 -59 -58 -118 -122 -130 -141 -11 -19 -36 -54 -53 -78 -41 -54 -204 -385
-204 -413 0 -14 -87 -177 -126 -234 -56 -83 -198 -219 -288 -276 -76 -48 -184
-90 -301 -117 -83 -20 -377 -23 -440 -5 -22 7 -65 17 -95 24 -92 19 -218 59
-270 85 -113 57 -217 143 -296 246 -43 56 -58 108 -34 123 6 3 10 22 10 40 0
24 6 38 19 45 27 14 56 0 116 -56 59 -55 118 -94 142 -94 10 0 27 -7 37 -15
11 -8 34 -15 51 -15 17 0 36 -5 43 -12 11 -11 46 -18 197 -39 84 -11 222 -6
252 10 10 5 34 15 53 24 135 56 167 73 208 109 18 15 40 28 49 28 19 0 373
356 411 413 13 20 28 37 32 37 4 0 45 44 92 98 166 190 241 267 297 305 77 52
189 105 231 110 62 7 174 -5 193 -21z m-5055 -220 c29 -26 42 -52 26 -52 -8 0
-74 66 -74 74 0 13 18 5 48 -22z m3922 -551 c0 -12 -106 -102 -174 -147 -33
-21 -71 -47 -85 -56 -14 -10 -33 -20 -41 -24 -8 -3 -27 -12 -42 -20 -14 -8
-32 -14 -39 -14 -7 0 -21 -8 -32 -17 -17 -16 -41 -18 -197 -17 -147 1 -182 4
-201 18 -13 9 -39 16 -59 16 -19 0 -44 7 -54 15 -11 8 -25 15 -32 15 -27 0
-144 62 -144 75 0 19 21 19 57 0 66 -34 153 -61 248 -75 28 -5 63 -13 78 -19
41 -16 209 -14 249 3 18 8 53 22 78 31 65 25 116 52 193 104 38 25 79 52 93
59 13 7 32 24 41 37 17 23 63 35 63 16z m-1312 -319 c5 -32 172 -204 229 -235
99 -55 153 -78 254 -108 108 -32 130 -45 153 -88 7 -14 20 -39 29 -56 27 -50
87 -185 87 -195 0 -6 4 -10 10 -10 5 0 13 -12 16 -27 7 -31 43 -109 110 -247
24 -48 44 -95 44 -103 0 -8 6 -27 14 -41 8 -15 22 -47 32 -72 10 -25 24 -52
31 -61 7 -8 13 -27 13 -41 0 -14 6 -31 14 -37 8 -7 17 -33 20 -59 5 -47 22
-161 33 -217 3 -16 7 -136 10 -265 5 -232 -11 -480 -38 -566 -5 -17 -9 -48 -9
-70 0 -22 -7 -49 -15 -60 -8 -10 -15 -33 -15 -50 0 -17 -7 -37 -15 -44 -8 -7
-15 -23 -15 -35 0 -12 -7 -28 -15 -35 -8 -7 -15 -19 -15 -27 0 -22 -80 -179
-132 -258 -25 -39 -56 -88 -71 -110 -40 -63 -164 -185 -188 -185 -18 0 -20 4
-15 26 4 14 18 43 31 65 14 21 25 47 25 57 0 10 6 24 12 30 21 21 23 220 3
310 -49 219 -71 277 -143 384 -26 38 -52 79 -59 91 -27 49 -237 252 -293 283
-19 10 -51 31 -70 45 -19 14 -69 45 -110 69 -113 65 -270 169 -316 209 -23 20
-63 52 -90 71 -137 99 -366 380 -425 521 -12 30 -28 61 -36 70 -7 8 -13 24
-13 35 0 11 -7 29 -15 40 -21 28 -21 302 0 330 8 10 15 29 15 41 0 12 7 35 15
52 8 17 22 45 30 62 8 17 15 36 15 42 0 24 34 47 69 47 20 0 47 7 59 16 13 9
33 14 44 11 12 -3 34 1 49 9 15 7 41 14 56 14 36 0 172 55 199 81 11 10 25 19
31 19 6 0 32 19 58 43 64 57 239 236 244 248 1 6 15 9 30 7 18 -2 27 -10 29
-26z m-1732 -281 c19 -17 251 -91 287 -91 14 0 38 -7 53 -15 18 -9 41 -13 60
-9 20 4 43 0 62 -10 19 -10 56 -16 96 -16 94 0 111 -22 81 -105 -8 -22 -15
-51 -15 -65 0 -14 -6 -37 -14 -51 -17 -34 -27 -239 -16 -339 9 -88 19 -115 83
-233 59 -108 142 -210 317 -390 184 -188 286 -268 520 -406 58 -34 112 -66
120 -72 8 -5 24 -13 35 -18 11 -5 36 -23 55 -41 19 -18 53 -44 75 -57 66 -42
310 -298 356 -375 23 -37 45 -71 50 -74 5 -3 9 -15 9 -26 0 -12 6 -29 13 -37
12 -14 22 -82 44 -298 4 -34 0 -68 -11 -99 -9 -26 -16 -56 -16 -66 0 -23 -70
-118 -86 -118 -15 0 -7 74 12 112 19 37 18 204 -1 238 -8 14 -14 34 -15 45 0
30 -85 191 -133 254 -51 66 -164 170 -214 196 -21 11 -66 39 -101 63 -34 23
-66 42 -71 42 -5 0 -36 14 -69 30 -34 17 -65 30 -71 30 -5 0 -45 15 -88 34
-97 41 -171 66 -200 66 -12 0 -25 5 -28 10 -3 6 -19 10 -34 10 -15 0 -36 7
-47 15 -10 8 -31 15 -45 15 -15 0 -32 7 -39 15 -7 8 -23 15 -37 15 -13 0 -34
5 -46 12 -12 6 -38 15 -57 19 -19 4 -48 12 -65 18 -16 5 -61 19 -100 31 -138
42 -324 153 -476 285 -25 22 -62 54 -83 70 -31 25 -119 121 -207 225 -34 40
-91 160 -146 305 -8 22 -21 52 -29 67 -8 14 -14 48 -14 75 0 28 -6 58 -15 69
-21 28 -21 282 0 310 8 10 15 35 15 55 0 24 18 71 51 135 78 150 82 154 138
154 26 0 51 -4 57 -9z m-189 -27 c3 -9 1 -24 -5 -33 -7 -9 -16 -26 -21 -38 -6
-11 -15 -24 -20 -28 -6 -3 -11 -17 -11 -29 0 -13 -7 -29 -15 -36 -8 -7 -15
-22 -15 -35 0 -12 -6 -35 -14 -51 -17 -35 -41 -246 -31 -271 4 -10 10 -49 15
-88 7 -65 15 -95 45 -170 7 -16 20 -55 29 -85 30 -95 69 -179 109 -231 15 -20
27 -41 27 -46 0 -16 128 -165 198 -231 37 -34 94 -83 127 -109 33 -25 65 -51
70 -57 6 -6 18 -15 27 -21 9 -5 54 -36 100 -67 46 -32 88 -58 94 -58 6 0 32
-11 58 -25 26 -14 58 -25 70 -25 13 0 29 -7 36 -15 7 -8 25 -15 39 -15 15 0
36 -7 47 -15 10 -8 33 -15 50 -15 17 0 37 -7 44 -15 7 -8 27 -15 46 -15 18 0
35 -4 38 -9 4 -5 32 -17 64 -26 31 -9 70 -23 85 -31 16 -8 36 -14 45 -14 9 0
55 -11 102 -26 91 -29 99 -32 175 -64 90 -38 100 -42 127 -56 14 -8 34 -14 43
-14 15 0 67 -32 210 -126 110 -73 198 -173 269 -306 50 -94 69 -169 68 -273
-1 -57 -13 -124 -23 -131 -5 -3 -9 -13 -9 -22 0 -29 -57 -140 -84 -163 -28
-24 -62 -45 -88 -55 -10 -3 -18 -10 -18 -14 0 -12 -80 -51 -91 -45 -18 12 -9
33 25 59 19 14 38 26 43 26 4 0 33 26 64 58 122 125 140 311 49 509 -64 139
-118 205 -254 314 -49 40 -168 105 -281 154 -16 7 -46 20 -65 28 -94 41 -109
47 -122 47 -17 1 -116 35 -125 44 -3 3 -17 6 -29 6 -13 0 -25 4 -29 9 -3 5
-20 12 -38 16 -55 12 -201 57 -212 66 -5 5 -17 9 -27 9 -17 0 -68 20 -120 46
-14 8 -35 14 -46 14 -11 0 -25 7 -32 15 -7 8 -21 15 -30 15 -10 0 -31 6 -47
14 -15 8 -53 26 -83 40 -205 95 -497 313 -559 417 -11 20 -28 42 -37 50 -15
13 -114 155 -114 164 0 3 -11 23 -25 45 -37 59 -79 182 -117 340 -23 99 -20
260 7 370 9 36 19 80 22 98 8 51 96 211 128 234 17 13 35 9 42 -8z m2707 -159
c16 -33 37 -76 45 -95 9 -19 28 -55 42 -81 15 -25 30 -57 34 -70 7 -24 79
-181 96 -209 5 -8 12 -22 15 -30 3 -8 10 -24 15 -35 18 -41 110 -338 132 -430
50 -201 75 -484 57 -645 -20 -178 -45 -344 -54 -359 -8 -12 -55 -179 -63 -224
-3 -15 -9 -30 -14 -33 -5 -3 -9 -12 -9 -21 0 -14 -7 -31 -47 -123 -30 -68
-113 -197 -132 -205 -23 -9 -23 1 2 46 35 64 53 100 70 139 8 19 29 64 46 100
17 36 31 74 31 86 0 11 5 25 10 30 6 6 15 35 20 65 5 30 16 86 25 124 27 123
39 274 39 520 0 233 -4 287 -39 485 -15 84 -46 181 -75 232 -6 10 -10 24 -10
32 0 8 -7 29 -16 48 -37 75 -44 90 -44 103 0 7 -7 18 -15 25 -8 7 -15 20 -15
29 0 8 -13 43 -29 76 -17 33 -48 102 -71 154 -22 51 -62 135 -89 186 -26 51
-51 105 -55 119 -6 26 -5 27 31 24 36 -3 40 -7 67 -63z m286 20 c0 -10 39 -73
132 -213 15 -24 28 -46 28 -49 0 -3 17 -31 38 -62 21 -31 60 -99 86 -151 26
-52 56 -104 65 -115 10 -11 28 -44 40 -72 12 -29 33 -74 46 -99 14 -26 25 -53
25 -59 0 -7 7 -18 15 -25 8 -7 15 -27 15 -45 0 -17 6 -45 14 -61 18 -37 31
-177 31 -329 0 -141 -20 -354 -35 -369 -5 -5 -10 -26 -10 -46 0 -20 -7 -45
-15 -56 -8 -10 -15 -31 -15 -45 0 -15 -7 -32 -15 -39 -8 -7 -15 -23 -15 -35 0
-13 -8 -38 -17 -57 -9 -18 -22 -45 -30 -60 -7 -14 -13 -31 -13 -36 0 -14 -35
-88 -64 -137 -14 -22 -34 -60 -45 -84 -12 -25 -33 -59 -46 -77 -14 -18 -25
-36 -25 -39 0 -35 -356 -434 -436 -489 -145 -99 -282 -186 -294 -186 -8 0 -24
-7 -34 -15 -11 -8 -29 -15 -40 -15 -11 0 -28 -8 -38 -17 -12 -11 -22 -13 -28
-7 -7 7 1 18 22 34 18 13 37 29 41 37 4 7 16 13 25 13 9 0 53 32 97 70 44 39
109 94 144 123 141 115 230 211 309 332 22 35 82 165 88 193 8 35 36 114 45
127 3 6 11 30 17 55 6 25 18 70 27 100 9 30 20 84 24 120 4 36 12 74 18 85 26
47 21 517 -6 680 -19 107 -53 251 -79 330 -6 17 -22 68 -37 115 -15 47 -35
103 -45 125 -9 22 -21 51 -25 65 -4 14 -27 62 -51 108 -24 46 -44 91 -44 102
0 10 -5 22 -10 25 -18 11 -121 229 -118 250 3 17 13 21 80 25 42 3 79 8 83 11
8 9 75 -23 75 -36z m180 -65 c46 -49 91 -102 100 -117 10 -16 29 -39 44 -52
14 -14 26 -33 26 -42 0 -10 9 -23 20 -29 11 -6 27 -25 35 -43 19 -41 74 -140
108 -194 15 -23 33 -59 41 -80 8 -21 26 -69 40 -108 14 -38 30 -78 36 -87 5
-10 15 -37 20 -60 34 -136 41 -170 50 -233 5 -38 14 -88 20 -110 12 -51 12
-236 -1 -295 -5 -25 -13 -67 -19 -95 -10 -56 -26 -130 -42 -190 -20 -78 -139
-359 -173 -410 -12 -16 -24 -37 -27 -47 -12 -31 -121 -193 -187 -278 -59 -77
-307 -330 -322 -330 -4 0 -37 -25 -74 -55 -59 -49 -159 -115 -267 -178 -42
-25 -160 -67 -185 -67 -12 0 -37 -7 -56 -15 -20 -8 -58 -15 -84 -15 -26 0 -67
-5 -91 -10 -33 -8 -49 -7 -72 5 -40 21 -38 35 5 35 19 0 44 4 57 9 13 5 66 17
118 26 87 16 137 33 245 86 58 28 116 69 268 189 45 35 214 208 245 250 50 66
107 135 118 142 7 4 15 19 18 33 4 14 11 25 16 25 6 0 10 7 10 15 0 8 15 32
33 52 19 21 49 70 67 108 19 39 42 82 52 97 11 15 29 57 42 93 13 36 28 71 35
78 6 6 11 19 11 28 0 10 6 30 14 46 25 51 51 135 67 218 5 28 15 75 22 105 8
35 12 141 11 290 -1 205 -4 246 -23 323 -21 87 -63 191 -82 202 -5 4 -9 17 -9
30 0 13 -4 26 -8 29 -8 5 -33 51 -142 258 -53 101 -176 303 -225 368 -41 55
-46 90 -12 90 17 0 48 -26 107 -90z m-2180 65 c15 -14 16 -21 5 -51 -6 -19
-17 -40 -23 -46 -7 -7 -12 -19 -12 -28 0 -9 -4 -20 -8 -25 -5 -6 -17 -48 -26
-95 -25 -121 -14 -285 23 -358 9 -18 54 -115 71 -154 6 -13 18 -35 28 -50 36
-55 105 -154 130 -188 34 -44 189 -199 266 -265 58 -50 303 -216 456 -310 45
-27 105 -67 133 -88 29 -20 62 -44 73 -53 35 -24 160 -155 198 -205 45 -60 96
-146 96 -163 0 -8 7 -19 15 -26 18 -15 20 -63 3 -58 -7 3 -15 13 -16 24 -2 10
-9 24 -15 29 -7 6 -25 28 -41 50 -84 115 -240 273 -356 360 -118 88 -188 135
-202 135 -6 0 -19 6 -27 13 -20 17 -170 107 -178 107 -3 0 -13 7 -22 15 -9 8
-50 40 -91 70 -103 76 -184 150 -309 285 -151 164 -214 238 -231 271 -8 15
-31 59 -52 98 -52 99 -76 256 -58 380 22 157 60 294 87 319 28 26 59 28 83 7z
m1520 -2467 c0 -23 -3 -29 -11 -21 -6 6 -8 20 -4 32 9 30 15 26 15 -11z"/>
<path d="M3906 11233 c-28 -68 -75 -179 -103 -241 -8 -18 -11 -37 -8 -42 6
-10 307 -15 317 -5 5 5 -13 47 -58 138 -8 16 -14 37 -14 48 0 10 -4 19 -10 19
-5 0 -13 12 -16 27 -4 15 -13 34 -21 41 -7 7 -13 23 -13 36 0 24 -17 46 -35
46 -7 0 -24 -30 -39 -67z"/>
<path d="M2685 11333 l1 -118 160 -3 c150 -2 163 -1 187 18 52 41 56 142 9
193 l-26 27 -166 0 -166 0 1 -117z"/>
<path d="M2692 10995 c-4 -5 -7 -75 -7 -155 l1 -145 183 2 c168 2 184 4 209
24 58 45 78 129 48 200 -25 60 -49 74 -135 76 -250 8 -293 8 -299 -2z"/>
<path d="M4824 11455 c-3 -6 -3 -89 -2 -185 l3 -175 180 -3 c203 -3 225 3 257
69 27 56 42 142 29 167 -6 11 -11 29 -11 39 -1 10 -14 34 -31 53 -29 34 -32
35 -107 37 -245 8 -315 8 -318 -2z"/>
<path d="M5960 11330 l0 -120 168 0 168 0 32 33 c28 29 32 40 32 88 0 49 -4
59 -33 87 l-33 32 -167 0 -167 0 0 -120z"/>
<path d="M5965 10998 c-3 -8 -4 -79 -3 -158 l3 -145 85 -2 c47 -1 133 1 192 4
102 5 108 6 137 35 30 29 31 33 31 116 l0 86 -37 33 -37 33 -152 0 c-83 0
-165 3 -183 6 -22 5 -32 2 -36 -8z"/>
<path d="M7216 11301 c-9 -9 -16 -23 -16 -30 0 -12 -5 -26 -45 -116 -7 -16
-25 -61 -40 -100 -16 -38 -32 -74 -37 -79 -4 -6 -8 -16 -8 -23 0 -10 35 -13
155 -13 181 0 181 0 141 85 -14 31 -26 62 -26 69 0 7 -7 19 -15 26 -8 7 -15
18 -15 25 0 8 -7 28 -16 47 -38 75 -44 90 -44 103 0 23 -16 26 -34 6z"/>
<path d="M6950 9752 c0 -10 -7 -28 -16 -40 -8 -12 -12 -27 -9 -32 4 -6 1 -17
-5 -25 -20 -24 -2 -35 56 -35 41 0 54 4 54 15 0 8 -4 15 -10 15 -5 0 -10 8
-10 17 0 23 -40 103 -51 103 -5 0 -9 -8 -9 -18z"/>
<path d="M8367 9823 c-13 -13 -7 -118 8 -140 13 -19 13 -22 0 -27 -12 -4 -15
-24 -15 -90 0 -80 2 -87 25 -102 20 -13 30 -14 62 -3 47 16 93 65 92 99 -1 47
-32 85 -74 90 -54 7 -55 26 -2 49 61 26 76 72 37 111 -15 15 -33 20 -73 20
-30 0 -57 -3 -60 -7z"/>
<path d="M8817 9753 c-4 -3 -7 -19 -7 -35 0 -15 -5 -37 -12 -47 -20 -33 -3
-51 47 -51 53 0 66 17 41 55 -9 13 -16 33 -16 44 0 25 -38 50 -53 34z"/>
<path d="M4365 8728 c-58 -33 -115 -111 -115 -158 0 -52 16 -71 25 -29 11 56
45 118 76 140 29 20 57 59 42 59 -4 0 -17 -6 -28 -12z"/>
<path d="M4256 8485 c-11 -29 -6 -102 8 -132 8 -15 22 -44 31 -63 24 -50 109
-138 188 -195 37 -27 67 -52 67 -55 0 -4 19 -16 43 -29 23 -12 49 -26 57 -30
106 -61 246 -111 350 -125 292 -38 716 -45 749 -11 8 8 12 17 10 20 -6 6 -1 6
-236 -1 -115 -4 -215 -2 -270 6 -49 6 -126 13 -172 16 -46 2 -91 9 -101 14
-10 6 -36 10 -57 10 -22 0 -48 7 -59 15 -10 8 -29 15 -40 15 -12 0 -27 7 -34
15 -7 8 -19 15 -27 15 -22 0 -142 68 -223 127 -77 56 -200 179 -200 199 0 6
-7 17 -15 24 -8 7 -15 24 -15 39 0 14 -7 35 -15 45 -8 11 -15 31 -15 45 0 36
-15 58 -24 36z"/>
</g>
</svg>
